<svg xmlns="http://www.w3.org/2000/svg" viewBox="0 0 32 32" fill="none">
  <g transform="scale(1.33) translate(2,2)">
    <path fill="#4F46E5" d="M12 3.75c-.19 0-.38.04-.55.13l-8.25 4.13a.75.75 0 000 1.36l8.25 4.13c.34.17.76.17 1.1 0l8.25-4.13a.75.75 0 000-1.36l-8.25-4.13a1.25 1.25 0 00-.55-.13zm-7.13 5.5L12 5.13l7.13 3.62L12 12.37 4.87 9.25zm15.13 5.25a.75.75 0 00-.75.75v2.25c0 1.24-2.7 2.25-6 2.25s-6-1.01-6-2.25V15a.75.75 0 00-1.5 0v2.25c0 2.07 3.36 3.75 7.5 3.75s7.5-1.68 7.5-3.75V15a.75.75 0 00-.75-.75z"/>
  </g>
</svg> 